<svg width="230" height="64" viewBox="0 0 230 64" fill="none" xmlns="http://www.w3.org/2000/svg">
<rect width="230" height="64" rx="32" fill="#FCD980"/>
<path d="M60.302 39H63.011L67.223 26.04H65.27L61.634 37.101L58.043 26.04H56.09L60.302 39ZM68.4088 27.687H70.2898V25.86H68.4088V27.687ZM68.4088 39H70.2898V29.28H68.4088V39ZM77.3034 39.27C78.2454 39.27 79.1004 39.033 79.8684 38.559C80.6364 38.079 81.2094 37.404 81.5874 36.534L79.7424 35.949C79.2504 36.981 78.4074 37.497 77.2134 37.497C76.3974 37.497 75.7554 37.251 75.2874 36.759C74.8194 36.267 74.5464 35.571 74.4684 34.671H81.7134C81.7794 33.507 81.6414 32.502 81.2994 31.656C80.9574 30.81 80.4384 30.159 79.7424 29.703C79.0464 29.241 78.2034 29.01 77.2134 29.01C76.2654 29.01 75.4344 29.223 74.7204 29.649C74.0064 30.075 73.4484 30.678 73.0464 31.458C72.6504 32.238 72.4524 33.159 72.4524 34.221C72.4524 35.223 72.6534 36.105 73.0554 36.867C73.4634 37.623 74.0304 38.214 74.7564 38.64C75.4884 39.06 76.3374 39.27 77.3034 39.27ZM77.2854 30.675C78.7554 30.675 79.5894 31.518 79.7874 33.204H74.5134C74.6334 32.382 74.9244 31.755 75.3864 31.323C75.8484 30.891 76.4814 30.675 77.2854 30.675ZM85.4511 39H86.9631L89.2401 31.962L91.5081 39H93.0201L95.9901 29.28H94.1361L92.1021 35.949L90.0501 29.28H88.4301L86.3781 35.949L84.3441 29.28L82.4811 29.271L85.4511 39ZM105.426 39.27C106.392 39.27 107.232 39.054 107.946 38.622C108.66 38.184 109.212 37.581 109.602 36.813C109.998 36.039 110.196 35.145 110.196 34.131C110.196 33.129 110.001 32.244 109.611 31.476C109.221 30.702 108.669 30.099 107.955 29.667C107.241 29.229 106.398 29.01 105.426 29.01C104.472 29.01 103.638 29.226 102.924 29.658C102.21 30.09 101.655 30.69 101.259 31.458C100.863 32.226 100.665 33.117 100.665 34.131C100.665 35.133 100.86 36.021 101.25 36.795C101.64 37.569 102.189 38.175 102.897 38.613C103.611 39.051 104.454 39.27 105.426 39.27ZM105.426 37.497C104.52 37.497 103.833 37.194 103.365 36.588C102.897 35.976 102.663 35.157 102.663 34.131C102.663 33.141 102.888 32.337 103.338 31.719C103.788 31.095 104.484 30.783 105.426 30.783C106.344 30.783 107.034 31.086 107.496 31.692C107.964 32.298 108.198 33.111 108.198 34.131C108.198 35.127 107.967 35.937 107.505 36.561C107.049 37.185 106.356 37.497 105.426 37.497ZM115.837 39.261C116.539 39.261 117.16 39.135 117.7 38.883C118.246 38.631 118.696 38.283 119.05 37.839V39H120.724V29.28H118.825V34.338C118.825 35.106 118.714 35.721 118.492 36.183C118.27 36.639 117.97 36.969 117.592 37.173C117.22 37.377 116.809 37.479 116.359 37.479C115.843 37.479 115.423 37.374 115.099 37.164C114.775 36.954 114.526 36.678 114.352 36.336C114.178 35.994 114.058 35.625 113.992 35.229C113.932 34.827 113.902 34.437 113.902 34.059V29.28H111.994V34.68C111.994 34.98 112.021 35.328 112.075 35.724C112.129 36.12 112.231 36.525 112.381 36.939C112.531 37.353 112.747 37.737 113.029 38.091C113.317 38.439 113.689 38.721 114.145 38.937C114.601 39.153 115.165 39.261 115.837 39.261ZM123.248 39H125.147V34.095C125.147 33.525 125.237 32.997 125.417 32.511C125.597 32.025 125.915 31.635 126.371 31.341C126.695 31.131 127.052 31.008 127.442 30.972C127.832 30.936 128.183 30.96 128.495 31.044V29.28C128.057 29.196 127.592 29.199 127.1 29.289C126.614 29.379 126.188 29.559 125.822 29.829C125.462 30.069 125.162 30.402 124.922 30.828V29.28H123.248V39ZM135.883 39H137.395L139.672 31.962L141.94 39H143.452L146.422 29.28H144.568L142.534 35.949L140.482 29.28H138.862L136.81 35.949L134.776 29.28L132.913 29.271L135.883 39ZM151.903 39.27C152.869 39.27 153.709 39.054 154.423 38.622C155.137 38.184 155.689 37.581 156.079 36.813C156.475 36.039 156.673 35.145 156.673 34.131C156.673 33.129 156.478 32.244 156.088 31.476C155.698 30.702 155.146 30.099 154.432 29.667C153.718 29.229 152.875 29.01 151.903 29.01C150.949 29.01 150.115 29.226 149.401 29.658C148.687 30.09 148.132 30.69 147.736 31.458C147.34 32.226 147.142 33.117 147.142 34.131C147.142 35.133 147.337 36.021 147.727 36.795C148.117 37.569 148.666 38.175 149.374 38.613C150.088 39.051 150.931 39.27 151.903 39.27ZM151.903 37.497C150.997 37.497 150.31 37.194 149.842 36.588C149.374 35.976 149.14 35.157 149.14 34.131C149.14 33.141 149.365 32.337 149.815 31.719C150.265 31.095 150.961 30.783 151.903 30.783C152.821 30.783 153.511 31.086 153.973 31.692C154.441 32.298 154.675 33.111 154.675 34.131C154.675 35.127 154.444 35.937 153.982 36.561C153.526 37.185 152.833 37.497 151.903 37.497ZM158.651 39H160.55V34.095C160.55 33.525 160.64 32.997 160.82 32.511C161 32.025 161.318 31.635 161.774 31.341C162.098 31.131 162.455 31.008 162.845 30.972C163.235 30.936 163.586 30.96 163.898 31.044V29.28C163.46 29.196 162.995 29.199 162.503 29.289C162.017 29.379 161.591 29.559 161.225 29.829C160.865 30.069 160.565 30.402 160.325 30.828V29.28H158.651V39ZM165.603 39H167.52V34.32L171.588 39H174.144L169.698 34.14L173.73 29.28H171.336L167.52 33.96V26.04H165.612L165.603 39Z" fill="#1B1C2B"/>
</svg>
